<svg xmlns="http://www.w3.org/2000/svg" width="900" height="420" font-family="sans-serif" font-size="12">
<rect width="100%" height="100%" fill="#ffffff"/>
<text x="450.0" y="24" text-anchor="middle" font-size="15" font-weight="bold">Ablations — interactive wake-up latency P99</text>
<text x="18" y="190.0" transform="rotate(-90 18 190.0)" text-anchor="middle">microseconds (lower is better)</text>
<line x1="80" x2="880" y1="330.0" y2="330.0" stroke="#e5e5e5"/>
<text x="74" y="334.0" text-anchor="end" fill="#555">0</text>
<line x1="80" x2="880" y1="274.0" y2="274.0" stroke="#e5e5e5"/>
<text x="74" y="278.0" text-anchor="end" fill="#555">6,977</text>
<line x1="80" x2="880" y1="218.0" y2="218.0" stroke="#e5e5e5"/>
<text x="74" y="222.0" text-anchor="end" fill="#555">13,954</text>
<line x1="80" x2="880" y1="162.0" y2="162.0" stroke="#e5e5e5"/>
<text x="74" y="166.0" text-anchor="end" fill="#555">20,930</text>
<line x1="80" x2="880" y1="106.0" y2="106.0" stroke="#e5e5e5"/>
<text x="74" y="110.0" text-anchor="end" fill="#555">27,907</text>
<line x1="80" x2="880" y1="50.0" y2="50.0" stroke="#e5e5e5"/>
<text x="74" y="54.0" text-anchor="end" fill="#555">34,884</text>
<rect x="88.9" y="87.3" width="69.1" height="242.7" fill="#5B6C8F"><title>A1-controller-off / wake p99 (us): 30,237.0</title></rect>
<text x="124.4" y="346" text-anchor="middle">A1-controller-off</text>
<rect x="177.8" y="178.6" width="69.1" height="151.4" fill="#5B6C8F"><title>A2-profiling-off / wake p99 (us): 18,860.0</title></rect>
<text x="213.3" y="346" text-anchor="middle">A2-profiling-off</text>
<rect x="266.7" y="86.5" width="69.1" height="243.5" fill="#5B6C8F"><title>A3-profile-no-switch / wake p99 (us): 30,334.0</title></rect>
<text x="302.2" y="346" text-anchor="middle">A3-profile-no-switch</text>
<rect x="355.6" y="318.6" width="69.1" height="11.4" fill="#5B6C8F"><title>A4-adaptive / wake p99 (us): 1,422.0</title></rect>
<text x="391.1" y="346" text-anchor="middle">A4-adaptive</text>
<rect x="444.4" y="295.5" width="69.1" height="34.5" fill="#5B6C8F"><title>A5-adaptive-cache / wake p99 (us): 4,301.0</title></rect>
<text x="480.0" y="346" text-anchor="middle">A5-adaptive-cache</text>
<rect x="533.3" y="320.4" width="69.1" height="9.6" fill="#5B6C8F"><title>A6-window25 / wake p99 (us): 1,193.0</title></rect>
<text x="568.9" y="346" text-anchor="middle">A6-window25</text>
<rect x="622.2" y="209.6" width="69.1" height="120.4" fill="#5B6C8F"><title>A6-window500 / wake p99 (us): 15,001.0</title></rect>
<text x="657.8" y="346" text-anchor="middle">A6-window500</text>
<rect x="711.1" y="320.9" width="69.1" height="9.1" fill="#5B6C8F"><title>A7-hyst1 / wake p99 (us): 1,129.0</title></rect>
<text x="746.7" y="346" text-anchor="middle">A7-hyst1</text>
<rect x="800.0" y="233.4" width="69.1" height="96.6" fill="#5B6C8F"><title>A7-hyst5 / wake p99 (us): 12,036.0</title></rect>
<text x="835.6" y="346" text-anchor="middle">A7-hyst5</text>
<rect x="80" y="380" width="12" height="12" fill="#5B6C8F"/>
<text x="96" y="390">wake p99 (us)</text>
</svg>