<svg xmlns="http://www.w3.org/2000/svg" width="900" height="420" font-family="sans-serif" font-size="12">
<rect width="100%" height="100%" fill="#ffffff"/>
<text x="450.0" y="24" text-anchor="middle" font-size="15" font-weight="bold">Graph 4 — CPU benchmark under profiler configurations (Mops/s)</text>
<text x="16" y="190.0" transform="rotate(-90 16 190.0)" text-anchor="middle">Mops/s</text>
<line x1="70" x2="880" y1="330.0" y2="330.0" stroke="#e3e3e3"/>
<text x="64" y="334.0" text-anchor="end" fill="#555">0.000</text>
<line x1="70" x2="880" y1="274.0" y2="274.0" stroke="#e3e3e3"/>
<text x="64" y="278.0" text-anchor="end" fill="#555">469.7</text>
<line x1="70" x2="880" y1="218.0" y2="218.0" stroke="#e3e3e3"/>
<text x="64" y="222.0" text-anchor="end" fill="#555">939.4</text>
<line x1="70" x2="880" y1="162.0" y2="162.0" stroke="#e3e3e3"/>
<text x="64" y="166.0" text-anchor="end" fill="#555">1,409</text>
<line x1="70" x2="880" y1="106.0" y2="106.0" stroke="#e3e3e3"/>
<text x="64" y="110.0" text-anchor="end" fill="#555">1,879</text>
<line x1="70" x2="880" y1="50.0" y2="50.0" stroke="#e3e3e3"/>
<text x="64" y="54.0" text-anchor="end" fill="#555">2,348</text>
<line x1="70" x2="880" y1="80.0" y2="80.0" stroke="#333" stroke-dasharray="4 3"/>
<rect x="151.0" y="102.4" width="160.0" height="227.6" fill="#5B6C8F"><title>cpu observe-10: 1,909</title></rect>
<rect x="313.0" y="83.0" width="160.0" height="247.0" fill="#8FA3BF"><title>cpu observe-100: 2,071</title></rect>
<rect x="475.0" y="85.0" width="160.0" height="245.0" fill="#C9A66B"><title>cpu observe-1000: 2,055</title></rect>
<rect x="637.0" y="80.0" width="160.0" height="250.0" fill="#7FA37A"><title>cpu off: 2,097</title></rect>
<text x="475.0" y="346" text-anchor="middle">cpu</text>
<rect x="70" y="380" width="12" height="12" fill="#5B6C8F"/>
<text x="86" y="390">observe-10</text>
<rect x="163.0" y="380" width="12" height="12" fill="#8FA3BF"/>
<text x="179.0" y="390">observe-100</text>
<rect x="263.5" y="380" width="12" height="12" fill="#C9A66B"/>
<text x="279.5" y="390">observe-1000</text>
<rect x="371.5" y="380" width="12" height="12" fill="#7FA37A"/>
<text x="387.5" y="390">off</text>
</svg>